<?xml version="1.0" encoding="UTF-8"?>
<svg width="13px" height="13px" viewBox="0 0 13 13" version="1.1" xmlns="http://www.w3.org/2000/svg" xmlns:xlink="http://www.w3.org/1999/xlink">
    <title>CCB23F22-D0EF-4A64-87AF-DA84593CDDD8</title>
    <g id="ðŸ -Home" stroke="none" stroke-width="1" fill="none" fill-rule="evenodd">
        <g id="1.1-Home-V2" transform="translate(-1490.000000, -97.000000)" fill="#605752">
            <g id="Header&amp;Footer/TopHeader/Main/Massive/Desktop" transform="translate(0.000000, 88.000000)">
                <g id="Icon/20/phone" transform="translate(1490.125000, 9.645167)">
                    <path d="M2.95013517,0.00636167728 C3.33628691,-0.0403689016 3.70679998,0.173910421 3.85887953,0.531917015 L3.85887953,0.531917015 L5.11406634,3.4606822 C5.22950718,3.73004441 5.20243645,4.03931288 5.04195429,4.28452317 L5.04195429,4.28452317 L4.00107252,5.87493847 C3.97765464,5.91030405 3.97454722,5.95537486 3.99162953,5.99101731 C4.47338343,6.97592671 5.27174394,7.77065984 6.25618501,8.24665419 C6.29464716,8.26488015 6.33987213,8.26145848 6.37684949,8.23651601 L6.37684949,8.23651601 L7.94157935,7.19311944 C8.18762014,7.02905452 8.49988407,7.00036815 8.77169853,7.11685996 L8.77169853,7.11685996 L11.6979042,8.3709502 C12.0559164,8.52302597 12.2702014,8.89354122 12.2231624,9.28218234 C12.0078151,10.9672744 10.5737453,12.2298331 8.87500004,12.2298331 C3.97347287,12.2298331 -4.54747351e-13,8.25636025 -4.54747351e-13,3.35483307 C-4.54747351e-13,1.65608786 1.26255873,0.222018047 2.95013517,0.00636167728 Z M3.04272425,0.750620369 C1.73203181,0.918121059 0.750000004,2.03355603 0.750000004,3.35483307 C0.750000004,7.84214669 4.38768643,11.4798331 8.87500004,11.4798331 C10.1962771,11.4798331 11.3117121,10.4978013 11.4789035,9.18959445 C11.4855031,9.13505827 11.45524,9.08273094 11.4035716,9.06078124 L11.4035716,9.06078124 L8.47625917,7.80621878 C8.43742855,7.7895771 8.39281942,7.79367515 8.3576712,7.81711269 L8.3576712,7.81711269 L6.79463708,8.85937183 C6.53970438,9.03137871 6.21292904,9.05610214 5.93236685,8.92314008 C4.79408754,8.37277707 3.87344762,7.4563201 3.31664628,6.31795653 C3.1841782,6.04176006 3.20661939,5.71626739 3.37463138,5.46254612 L3.37463138,5.46254612 L4.41440574,3.87381301 C4.43733176,3.83878297 4.44119901,3.79460176 4.4247075,3.75612153 L4.4247075,3.75612153 L3.16905061,0.826254636 L3.16419947,0.815914553 C3.14056273,0.770952094 3.0915223,0.74472291 3.04272425,0.750620369 Z" id="phone"></path>
                </g>
            </g>
        </g>
    </g>
</svg>